shantell--extrabold--organic.ufo
<glyph name="exclam" format="2">
	<unicode hex="0021"/>
	<advance width="337"/>
	<outline>
		<contour>
			<point x="249" y="457.8622967959" type="curve" smooth="yes"/>
			<point x="249" y="425.7078252512"/>
			<point x="244" y="388.9598577715"/>
			<point x="244" y="344.8622967959" type="curve" smooth="yes"/>
			<point x="244" y="282.8622967959"/>
			<point x="250" y="218.8622967959"/>
			<point x="250" y="179.8622967959" type="curve" smooth="yes"/>
			<point x="250" y="121.8622967959"/>
			<point x="223" y="93.8622967959"/>
			<point x="180" y="93.8622967959" type="curve" smooth="yes"/>
			<point x="133" y="93.8622967959"/>
			<point x="102" y="113.8622967959"/>
			<point x="93" y="160.8622967959" type="curve" smooth="yes"/>
			<point x="82" y="220.8622967959"/>
			<point x="77" y="260.8622967959"/>
			<point x="77" y="328.8622967959" type="curve" smooth="yes"/>
			<point x="77" y="380.9977134626"/>
			<point x="83.8959158515" y="442.609326142"/>
			<point x="82" y="510.8622967959" type="curve" smooth="yes"/>
			<point x="80" y="549.8622967959"/>
			<point x="93" y="575.8622967959"/>
			<point x="134" y="575.8622967959" type="curve" smooth="yes"/>
			<point x="205" y="575.8622967959"/>
			<point x="249" y="541.8622967959"/>
		</contour>
		<contour>
			<point x="186" y="-155.1377032041" type="curve" smooth="yes"/>
			<point x="243" y="-155.1377032041"/>
			<point x="273" y="-128.1377032041"/>
			<point x="273" y="-85.1377032041" type="curve" smooth="yes"/>
			<point x="273" y="-30.1377032041"/>
			<point x="235" y="22.8622967959"/>
			<point x="153" y="22.8622967959" type="curve" smooth="yes"/>
			<point x="100" y="22.8622967959"/>
			<point x="64" y="-6.1377032041"/>
			<point x="64" y="-66.1377032041" type="curve" smooth="yes"/>
			<point x="64" y="-123.1377032041"/>
			<point x="110" y="-155.1377032041"/>
		</contour>
	</outline>
</glyph>
<glyph name="numbersign" format="2">
	<unicode hex="0023"/>
	<advance width="1029"/>
	<image fileName="numbersign.png" xScale="1.7590725526" yScale="1.7590725526" xOffset="11.9256325946" yOffset="-214.5705612106" color="0,0,0,0.3075"/>
	<outline>
		<contour>
			<point x="539" y="603.6089996272" type="curve" smooth="yes"/>
			<point x="539" y="440.6089996272"/>
			<point x="332" y="23.6089996272"/>
			<point x="332" y="-156.3910003728" type="curve" smooth="yes"/>
			<point x="332" y="-206.3910003728"/>
			<point x="290" y="-245.3910003728"/>
			<point x="248" y="-244.3910003728" type="curve" smooth="yes"/>
			<point x="194" y="-243.3910003728"/>
			<point x="150" y="-204.3910003728"/>
			<point x="150" y="-127.3910003728" type="curve" smooth="yes"/>
			<point x="150" y="40.6089996272"/>
			<point x="358" y="459.6089996272"/>
			<point x="358" y="615.6089996272" type="curve" smooth="yes"/>
			<point x="358" y="681.6089996272"/>
			<point x="385" y="712.6089996272"/>
			<point x="433" y="713.6089996272" type="curve" smooth="yes"/>
			<point x="490" y="714.6089996272"/>
			<point x="539" y="663.6089996272"/>
		</contour>
		<contour>
			<point x="828" y="662.6089996272"/>
			<point x="884" y="621.6089996272"/>
			<point x="884" y="558.6089996272" type="curve" smooth="yes"/>
			<point x="884" y="413.6089996272"/>
			<point x="682" y="64.6089996272"/>
			<point x="682" y="-207.3910003728" type="curve" smooth="yes"/>
			<point x="682" y="-264.3910003728"/>
			<point x="649" y="-295.3910003728"/>
			<point x="604" y="-294.3910003728" type="curve" smooth="yes"/>
			<point x="540" y="-293.3910003728"/>
			<point x="499" y="-248.3910003728"/>
			<point x="500" y="-191.3910003728" type="curve" smooth="yes"/>
			<point x="505" y="76.6089996272"/>
			<point x="706" y="418.6089996272"/>
			<point x="706" y="581.6089996272" type="curve" smooth="yes"/>
			<point x="706" y="632.6089996272"/>
			<point x="727" y="662.6089996272"/>
			<point x="772" y="662.6089996272" type="curve" smooth="yes"/>
		</contour>
		<contour>
			<point x="128" y="147.6089996272" type="curve" smooth="yes"/>
			<point x="371.2781456954" y="147.6089996272"/>
			<point x="659.7218543046" y="180.6089996272"/>
			<point x="903" y="180.6089996272" type="curve" smooth="yes"/>
			<point x="962" y="180.6089996272"/>
			<point x="983" y="159.6089996272"/>
			<point x="984" y="121.6089996272" type="curve" smooth="yes"/>
			<point x="986" y="67.6089996272"/>
			<point x="942" y="12.6089996272"/>
			<point x="838" y="8.6089996272" type="curve" smooth="yes"/>
			<point x="639.9896802498" y="3.4524808837"/>
			<point x="354.2978056426" y="-48.3910003728"/>
			<point x="180" y="-48.3910003728" type="curve" smooth="yes"/>
			<point x="66" y="-48.3910003728"/>
			<point x="32" y="10.6089996272"/>
			<point x="35" y="69.6089996272" type="curve" smooth="yes"/>
			<point x="37" y="112.6089996272"/>
			<point x="78" y="147.6089996272"/>
		</contour>
		<contour>
			<point x="330.8708708709" y="506.6089996272"/>
			<point x="374" y="452.6089996272"/>
			<point x="920" y="452.6089996272" type="curve" smooth="yes"/>
			<point x="967" y="452.6089996272"/>
			<point x="993" y="428.6089996272"/>
			<point x="994" y="384.6089996272" type="curve" smooth="yes"/>
			<point x="995" y="337.6089996272"/>
			<point x="956" y="291.6089996272"/>
			<point x="890" y="291.6089996272" type="curve" smooth="yes"/>
			<point x="660" y="291.6089996272"/>
			<point x="459" y="298.6089996272"/>
			<point x="290" y="318.6089996272" type="curve" smooth="yes"/>
			<point x="177" y="330.6089996272"/>
			<point x="153" y="384.6089996272"/>
			<point x="153" y="429.6089996272" type="curve" smooth="yes"/>
			<point x="153" y="474.6089996272"/>
			<point x="178" y="506.6089996272"/>
			<point x="240" y="506.6089996272" type="curve" smooth="yes"/>
		</contour>
	</outline>
</glyph>
<glyph name="asterisk" format="2">
	<unicode hex="002A"/>
	<advance width="520"/>
	<image fileName="asterisk000000000000001.png" xScale="0.2628236287" yScale="0.2628236287" xOffset="-8.6573841831" yOffset="213.6021023181" color="0,0,0,0.2098"/>
	<outline>
		<contour>
			<point x="291" y="818.0600542643"/>
			<point x="334" y="760.0600542643"/>
			<point x="334" y="622.0600542643" type="curve" smooth="yes"/>
			<point x="334" y="551.0600542643"/>
			<point x="330" y="437.0600542643"/>
			<point x="346" y="350.0600542643" type="curve" smooth="yes"/>
			<point x="354" y="306.0600542643"/>
			<point x="336" y="278.0600542643"/>
			<point x="288" y="278.0600542643" type="curve" smooth="yes"/>
			<point x="253" y="278.0600542643"/>
			<point x="234" y="298.0600542643"/>
			<point x="228" y="326.0600542643" type="curve" smooth="yes"/>
			<point x="209" y="419.0600542643"/>
			<point x="214" y="545.0600542643"/>
			<point x="214" y="622.0600542643" type="curve" smooth="yes"/>
			<point x="214" y="729.0600542643"/>
			<point x="183" y="732.0600542643"/>
			<point x="183" y="773.0600542643" type="curve" smooth="yes"/>
			<point x="183" y="801.0600542643"/>
			<point x="198" y="818.0600542643"/>
			<point x="233" y="818.0600542643" type="curve" smooth="yes"/>
		</contour>
		<contour>
			<point x="455" y="648.0600542643" type="curve" smooth="yes"/>
			<point x="399" y="571.0600542643"/>
			<point x="249" y="492.0600542643"/>
			<point x="185" y="393.0600542643" type="curve" smooth="yes"/>
			<point x="172" y="373.0600542643"/>
			<point x="158" y="366.0600542643"/>
			<point x="137" y="366.0600542643" type="curve" smooth="yes"/>
			<point x="105" y="366.0600542643"/>
			<point x="75" y="395.0600542643"/>
			<point x="75" y="427.0600542643" type="curve" smooth="yes"/>
			<point x="75" y="438.0600542643"/>
			<point x="76" y="451.0600542643"/>
			<point x="95" y="476.0600542643" type="curve" smooth="yes"/>
			<point x="156" y="557.0600542643"/>
			<point x="319" y="656.0600542643"/>
			<point x="365" y="723.0600542643" type="curve" smooth="yes"/>
			<point x="381" y="747.0600542643"/>
			<point x="397" y="760.0600542643"/>
			<point x="421" y="760.0600542643" type="curve" smooth="yes"/>
			<point x="457" y="760.0600542643"/>
			<point x="473" y="734.0600542643"/>
			<point x="473" y="703.0600542643" type="curve" smooth="yes"/>
			<point x="473" y="680.0600542643"/>
			<point x="466" y="664.0600542643"/>
		</contour>
		<contour>
			<point x="129" y="691.0600542643" type="curve" smooth="yes"/>
			<point x="201" y="652.0600542643"/>
			<point x="346" y="604.0600542643"/>
			<point x="465" y="540.0600542643" type="curve" smooth="yes"/>
			<point x="485" y="530.0600542643"/>
			<point x="497" y="511.0600542643"/>
			<point x="497" y="486.0600542643" type="curve" smooth="yes"/>
			<point x="497" y="454.0600542643"/>
			<point x="480" y="425.0600542643"/>
			<point x="444" y="425.0600542643" type="curve" smooth="yes"/>
			<point x="425" y="425.0600542643"/>
			<point x="417" y="429.0600542643"/>
			<point x="378" y="450.0600542643" type="curve" smooth="yes"/>
			<point x="288" y="498.0600542643"/>
			<point x="141" y="548.0600542643"/>
			<point x="71" y="588.0600542643" type="curve" smooth="yes"/>
			<point x="32" y="611.0600542643"/>
			<point x="23" y="643.0600542643"/>
			<point x="23" y="664.0600542643" type="curve" smooth="yes"/>
			<point x="23" y="696.0600542643"/>
			<point x="42" y="712.0600542643"/>
			<point x="70" y="712.0600542643" type="curve" smooth="yes"/>
			<point x="90" y="712.0600542643"/>
			<point x="100" y="706.0600542643"/>
		</contour>
	</outline>
</glyph>
<glyph name="comma" format="2">
	<unicode hex="002C"/>
	<advance width="320"/>
	<outline>
		<contour>
			<point x="270" y="285.1546537049"/>
			<point x="223" y="328.0387137448"/>
			<point x="149" y="328.0387137448" type="curve" smooth="yes"/>
			<point x="95" y="328.0387137448"/>
			<point x="70" y="292.0387137448"/>
			<point x="70" y="237.0387137448" type="curve" smooth="yes"/>
			<point x="70" y="210.0387137448"/>
			<point x="80" y="137.0387137448"/>
			<point x="52" y="60.0387137448" type="curve" smooth="yes"/>
			<point x="41.2456901304" y="31.3605540925"/>
			<point x="37" y="12.4798902154"/>
			<point x="37" y="-5.9612862552" type="curve" smooth="yes"/>
			<point x="37" y="-38.2529529219"/>
			<point x="55" y="-55.9612862552"/>
			<point x="93" y="-55.9612862552" type="curve" smooth="yes"/>
			<point x="138" y="-55.9612862552"/>
			<point x="185.7902388555" y="-20.7027577075"/>
			<point x="212" y="21.0387137448" type="curve" smooth="yes"/>
			<point x="246.5376602016" y="76.9084581885"/>
			<point x="270" y="153.0084107145"/>
			<point x="270" y="222.0387137448" type="curve" smooth="yes"/>
		</contour>
	</outline>
</glyph>
<glyph name="hyphen" format="2">
	<unicode hex="002D"/>
	<advance width="531"/>
	<outline>
		<contour>
			<point x="206" y="362.9336307089" type="curve" smooth="yes"/>
			<point x="238.7592592593" y="362.9336307089"/>
			<point x="291.9259259259" y="372.9336307089"/>
			<point x="438" y="372.9336307089" type="curve" smooth="yes"/>
			<point x="469" y="372.9336307089"/>
			<point x="487" y="393.9336307089"/>
			<point x="487" y="426.9336307089" type="curve" smooth="yes"/>
			<point x="487" y="467.9336307089"/>
			<point x="444" y="535.9336307089"/>
			<point x="325" y="535.9336307089" type="curve" smooth="yes"/>
			<point x="241.9642857143" y="535.9336307089"/>
			<point x="160.9762270093" y="535.7724697887"/>
			<point x="77" y="509.9336307089" type="curve" smooth="yes"/>
			<point x="49" y="501.9336307089"/>
			<point x="43" y="487.9336307089"/>
			<point x="43" y="465.9336307089" type="curve" smooth="yes"/>
			<point x="43" y="415.9336307089"/>
			<point x="101" y="362.9336307089"/>
		</contour>
	</outline>
</glyph>
<glyph name="slash" format="2">
	<unicode hex="002F"/>
	<advance width="455"/>
	<outline>
		<contour>
			<point x="506" y="1018.9521146351"/>
			<point x="545" y="928.9521146351"/>
			<point x="487" y="836.9521146351" type="curve" smooth="yes"/>
			<point x="353" y="622.9521146351"/>
			<point x="258" y="385.9521146351"/>
			<point x="225" y="98.9521146351" type="curve" smooth="yes"/>
			<point x="219" y="41.9521146351"/>
			<point x="187" y="10.9521146351"/>
			<point x="137" y="10.9521146351" type="curve" smooth="yes"/>
			<point x="74" y="10.9521146351"/>
			<point x="39" y="61.9521146351"/>
			<point x="46" y="125.9521146351" type="curve" smooth="yes"/>
			<point x="80" y="418.9521146351"/>
			<point x="205" y="760.9521146351"/>
			<point x="325" y="933.9521146351" type="curve" smooth="yes"/>
			<point x="365" y="991.9521146351"/>
			<point x="392" y="1018.9521146351"/>
			<point x="434" y="1018.9521146351" type="curve" smooth="yes"/>
		</contour>
	</outline>
</glyph>
<glyph name="zero" format="2">
	<unicode hex="0030"/>
	<advance width="700"/>
	<outline>
		<contour>
			<point x="305" y="643.6583396353" type="curve" smooth="yes"/>
			<point x="223" y="587.6583396353"/>
			<point x="194" y="520.6583396353"/>
			<point x="194" y="426.6583396353" type="curve" smooth="yes"/>
			<point x="194" y="362.6583396353"/>
			<point x="234" y="316.6583396353"/>
			<point x="315" y="316.6583396353" type="curve" smooth="yes"/>
			<point x="406" y="316.6583396353"/>
			<point x="505" y="407.6583396353"/>
			<point x="505" y="573.6583396353" type="curve" smooth="yes"/>
			<point x="505" y="641.6583396353"/>
			<point x="479" y="695.6583396353"/>
			<point x="400" y="695.6583396353" type="curve" smooth="yes"/>
			<point x="320" y="695.6583396353"/>
			<point x="285" y="663.6583396353"/>
			<point x="247" y="631.6583396353" type="curve" smooth="yes"/>
			<point x="228" y="615.6583396353"/>
			<point x="208" y="602.6583396353"/>
			<point x="189" y="602.6583396353" type="curve" smooth="yes"/>
			<point x="122" y="602.6583396353"/>
			<point x="94" y="664.6583396353"/>
			<point x="94" y="704.6583396353" type="curve" smooth="yes"/>
			<point x="94" y="768.6583396353"/>
			<point x="202" y="867.6583396353"/>
			<point x="400" y="867.6583396353" type="curve" smooth="yes"/>
			<point x="594" y="867.6583396353"/>
			<point x="678" y="755.6583396353"/>
			<point x="678" y="573.6583396353" type="curve" smooth="yes"/>
			<point x="678" y="284.6583396353"/>
			<point x="494" y="145.6583396353"/>
			<point x="317" y="145.6583396353" type="curve" smooth="yes"/>
			<point x="140" y="145.6583396353"/>
			<point x="21" y="230.6583396353"/>
			<point x="21" y="426.6583396353" type="curve" smooth="yes"/>
			<point x="21" y="658.6583396353"/>
			<point x="193" y="779.6583396353"/>
			<point x="266" y="779.6583396353" type="curve" smooth="yes"/>
			<point x="315" y="779.6583396353"/>
			<point x="334" y="759.6583396353"/>
			<point x="334" y="705.6583396353" type="curve" smooth="yes"/>
			<point x="334" y="684.6583396353"/>
			<point x="324" y="656.6583396353"/>
		</contour>
	</outline>
</glyph>
<glyph name="three" format="2">
	<unicode hex="0033"/>
	<advance width="700"/>
	<outline>
		<contour>
			<point x="372" y="794.3538677396" type="curve" smooth="yes"/>
			<point x="536" y="794.3538677396"/>
			<point x="614" y="723.3538677396"/>
			<point x="614" y="614.3538677396" type="curve" smooth="yes"/>
			<point x="614" y="544.3538677396"/>
			<point x="570.3647598726" y="471.4134203719"/>
			<point x="423" y="447.3538677396" type="curve"/>
			<point x="417" y="486.3538677396" type="line"/>
			<point x="620" y="484.3538677396"/>
			<point x="668" y="408.2473588639"/>
			<point x="668" y="310.3538677396" type="curve" smooth="yes"/>
			<point x="668" y="141.3538677396"/>
			<point x="488" y="70.3538677396"/>
			<point x="257" y="70.3538677396" type="curve"/>
			<point x="92.2" y="70.3538677396"/>
			<point x="51" y="124.3538677396"/>
			<point x="51" y="203.3538677396" type="curve" smooth="yes"/>
			<point x="51" y="247.3538677396"/>
			<point x="68.2833333333" y="283.3538677396"/>
			<point x="112" y="283.3538677396" type="curve" smooth="yes"/>
			<point x="153" y="283.3538677396"/>
			<point x="156.3609022556" y="243.3538677396"/>
			<point x="230" y="243.3538677396" type="curve" smooth="yes"/>
			<point x="389" y="243.3538677396"/>
			<point x="495" y="269.3538677396"/>
			<point x="495" y="321.3538677396" type="curve" smooth="yes"/>
			<point x="495" y="354.3538677396"/>
			<point x="458" y="364.3538677396"/>
			<point x="291" y="364.3538677396" type="curve" smooth="yes"/>
			<point x="238" y="364.3538677396"/>
			<point x="211" y="410.3538677396"/>
			<point x="211" y="459.3538677396" type="curve" smooth="yes"/>
			<point x="211" y="485.3538677396"/>
			<point x="223" y="503.3538677396"/>
			<point x="253" y="509.3538677396" type="curve" smooth="yes"/>
			<point x="373" y="534.3538677396"/>
			<point x="433" y="563.3538677396"/>
			<point x="433" y="604.3538677396" type="curve" smooth="yes"/>
			<point x="433" y="622.3538677396"/>
			<point x="422" y="629.3538677396"/>
			<point x="383" y="629.3538677396" type="curve" smooth="yes"/>
			<point x="220" y="629.3538677396"/>
			<point x="180.4285714286" y="557.3538677396"/>
			<point x="120" y="557.3538677396" type="curve" smooth="yes"/>
			<point x="92" y="557.3538677396"/>
			<point x="42" y="592.3538677396"/>
			<point x="42" y="638.3538677396" type="curve" smooth="yes"/>
			<point x="42" y="702.0958032235"/>
			<point x="191.7765650081" y="794.3538677396"/>
		</contour>
	</outline>
</glyph>
<glyph name="four" format="2">
	<unicode hex="0034"/>
	<advance width="700"/>
	<outline>
		<contour>
			<point x="327" y="241.2056931226" type="curve" smooth="yes"/>
			<point x="327" y="398.8940048109"/>
			<point x="372" y="545.2056931226"/>
			<point x="372" y="643.2056931226" type="curve" smooth="yes"/>
			<point x="372" y="658.2056931226"/>
			<point x="369" y="670.2056931226"/>
			<point x="358" y="694.2056931226" type="curve"/>
			<point x="411" y="637.2056931226" type="line"/>
			<point x="316" y="578.2056931226"/>
			<point x="234" y="475.2056931226"/>
			<point x="180" y="353.2056931226" type="curve"/>
			<point x="127" y="423.2056931226" type="line"/>
			<point x="160" y="410.2056931226"/>
			<point x="168" y="407.2056931226"/>
			<point x="193" y="407.2056931226" type="curve" smooth="yes"/>
			<point x="322.15" y="407.2056931226"/>
			<point x="428.75" y="451.2056931226"/>
			<point x="603" y="451.2056931226" type="curve" smooth="yes"/>
			<point x="652" y="451.2056931226"/>
			<point x="692" y="399.2056931226"/>
			<point x="692" y="343.2056931226" type="curve" smooth="yes"/>
			<point x="692" y="305.2056931226"/>
			<point x="674" y="276.2056931226"/>
			<point x="629" y="276.2056931226" type="curve" smooth="yes"/>
			<point x="418.7700205339" y="276.2056931226"/>
			<point x="298.3470225873" y="231.2056931226"/>
			<point x="132" y="231.2056931226" type="curve" smooth="yes"/>
			<point x="61" y="231.2056931226"/>
			<point x="15" y="288.2056931226"/>
			<point x="15" y="336.2056931226" type="curve" smooth="yes"/>
			<point x="15" y="385.1411769936"/>
			<point x="22.7022043817" y="440.0433411021"/>
			<point x="73" y="521.2056931226" type="curve" smooth="yes"/>
			<point x="182" y="698.2056931226"/>
			<point x="341" y="799.2056931226"/>
			<point x="415" y="799.2056931226" type="curve" smooth="yes"/>
			<point x="508" y="799.2056931226"/>
			<point x="551" y="727.2056931226"/>
			<point x="551" y="665.2056931226" type="curve" smooth="yes"/>
			<point x="551" y="511.2056931226"/>
			<point x="502" y="396.0153316768"/>
			<point x="502" y="232.2056931226" type="curve" smooth="yes"/>
			<point x="502" y="184.2056931226"/>
			<point x="512" y="163.2056931226"/>
			<point x="512" y="137.2056931226" type="curve" smooth="yes"/>
			<point x="512" y="97.2056931226"/>
			<point x="476" y="73.2056931226"/>
			<point x="422" y="73.2056931226" type="curve" smooth="yes"/>
			<point x="354" y="73.2056931226"/>
			<point x="327" y="123.2056931226"/>
		</contour>
	</outline>
</glyph>
<glyph name="six" format="2">
	<unicode hex="0036"/>
	<advance width="700"/>
	<outline>
		<contour>
			<point x="465" y="737.7193469354" type="curve" smooth="yes"/>
			<point x="318.5493302526" y="633.9711220671"/>
			<point x="205" y="536.7193469354"/>
			<point x="205" y="432.7193469354" type="curve" smooth="yes"/>
			<point x="205" y="368.921878581"/>
			<point x="269.9192546584" y="348.7193469354"/>
			<point x="361" y="348.7193469354" type="curve" smooth="yes"/>
			<point x="447.0970149254" y="348.7193469354"/>
			<point x="500" y="380.7193469354"/>
			<point x="500" y="419.7193469354" type="curve" smooth="yes"/>
			<point x="500" y="448.7193469354"/>
			<point x="473.3913043478" y="476.7193469354"/>
			<point x="398" y="476.7193469354" type="curve" smooth="yes"/>
			<point x="313.3971631206" y="476.7193469354"/>
			<point x="291.9787234043" y="455.7193469354"/>
			<point x="247" y="455.7193469354" type="curve" smooth="yes"/>
			<point x="205" y="455.7193469354"/>
			<point x="191" y="475.7193469354"/>
			<point x="191" y="501.7193469354" type="curve" smooth="yes"/>
			<point x="191" y="544.6799768567"/>
			<point x="286" y="625.7193469354"/>
			<point x="443" y="625.7193469354" type="curve" smooth="yes"/>
			<point x="585" y="625.7193469354"/>
			<point x="675" y="533.0309748424"/>
			<point x="675" y="413.7193469354" type="curve" smooth="yes"/>
			<point x="675" y="275.7193469354"/>
			<point x="552.5339805825" y="178.7193469354"/>
			<point x="357" y="178.7193469354" type="curve" smooth="yes"/>
			<point x="130.1495601173" y="178.7193469354"/>
			<point x="25" y="279.7193469354"/>
			<point x="25" y="427.7193469354" type="curve" smooth="yes"/>
			<point x="25" y="572.7193469354"/>
			<point x="145.1410615844" y="721.5437788655"/>
			<point x="341" y="864.7193469354" type="curve" smooth="yes"/>
			<point x="379.0628429786" y="892.4949350549"/>
			<point x="392.8405797101" y="898.7193469354"/>
			<point x="414" y="898.7193469354" type="curve" smooth="yes"/>
			<point x="464.7446808511" y="898.7193469354"/>
			<point x="504" y="849.2243974405"/>
			<point x="504" y="800.7193469354" type="curve" smooth="yes"/>
			<point x="504" y="777.7193469354"/>
			<point x="500" y="761.7193469354"/>
		</contour>
	</outline>
</glyph>
<glyph name="seven" format="2">
	<unicode hex="0037"/>
	<advance width="700"/>
	<outline>
		<contour>
			<point x="172" y="491.9719544518" type="curve" smooth="yes"/>
			<point x="285.9679144385" y="491.9719544518"/>
			<point x="386.5882352941" y="519.9719544518"/>
			<point x="556" y="519.9719544518" type="curve" smooth="yes"/>
			<point x="635" y="519.9719544518"/>
			<point x="682" y="472.9719544518"/>
			<point x="682" y="414.9719544518" type="curve" smooth="yes"/>
			<point x="682" y="378.9719544518"/>
			<point x="657" y="354.9719544518"/>
			<point x="611" y="354.9719544518" type="curve" smooth="yes"/>
			<point x="387.4245524297" y="354.9719544518"/>
			<point x="307.4296675192" y="326.9719544518"/>
			<point x="210" y="326.9719544518" type="curve" smooth="yes"/>
			<point x="153" y="326.9719544518"/>
			<point x="111" y="373.9719544518"/>
			<point x="111" y="423.9719544518" type="curve" smooth="yes"/>
			<point x="111" y="467.9719544518"/>
			<point x="130" y="491.9719544518"/>
		</contour>
		<contour>
			<point x="52" y="770.9719544518" type="curve" smooth="yes"/>
			<point x="151" y="807.9719544518"/>
			<point x="295.1998732257" y="835.9719544518"/>
			<point x="376" y="835.9719544518" type="curve" smooth="yes"/>
			<point x="553.0196078431" y="835.9719544518"/>
			<point x="620" y="760.9719544518"/>
			<point x="620" y="650.9719544518" type="curve" smooth="yes"/>
			<point x="620" y="490.9719544518"/>
			<point x="440" y="360.9719544518"/>
			<point x="440" y="195.9719544518" type="curve" smooth="yes"/>
			<point x="440" y="134.9719544518"/>
			<point x="421" y="116.9719544518"/>
			<point x="373" y="116.9719544518" type="curve" smooth="yes"/>
			<point x="315" y="116.9719544518"/>
			<point x="267" y="145.9719544518"/>
			<point x="267" y="208.9719544518" type="curve" smooth="yes"/>
			<point x="267" y="365.9719544518"/>
			<point x="443" y="561.9719544518"/>
			<point x="443" y="631.9719544518" type="curve" smooth="yes"/>
			<point x="443" y="660.9719544518"/>
			<point x="427" y="671.9719544518"/>
			<point x="383" y="671.9719544518" type="curve" smooth="yes"/>
			<point x="224" y="671.9719544518"/>
			<point x="156.309352518" y="619.9719544518"/>
			<point x="109" y="619.9719544518" type="curve" smooth="yes"/>
			<point x="67.4772727273" y="619.9719544518"/>
			<point x="22" y="672.9719544518"/>
			<point x="22" y="718.9719544518" type="curve" smooth="yes"/>
			<point x="22" y="740.9719544518"/>
			<point x="32" y="763.9719544518"/>
		</contour>
	</outline>
</glyph>
<glyph name="nine" format="2">
	<unicode hex="0039"/>
	<advance width="700"/>
	<outline>
		<contour>
			<point x="462" y="642.7962626633" type="curve" smooth="yes"/>
			<point x="501" y="642.7962626633"/>
			<point x="518" y="675.7962626633"/>
			<point x="518" y="707.7962626633" type="curve" smooth="yes"/>
			<point x="518" y="781.7962626633"/>
			<point x="463.7033898305" y="827.7962626633"/>
			<point x="369" y="827.7962626633" type="curve" smooth="yes"/>
			<point x="140" y="827.7962626633"/>
			<point x="32" y="687.6588580831"/>
			<point x="32" y="559.7962626633" type="curve" smooth="yes"/>
			<point x="32" y="433.7867388538"/>
			<point x="107.6622222222" y="357.7962626633"/>
			<point x="256" y="357.7962626633" type="curve" smooth="yes"/>
			<point x="394.4554455446" y="357.7962626633"/>
			<point x="481.5653363309" y="407.6907821742"/>
			<point x="560" y="531.7962626633" type="curve"/>
			<point x="455" y="478.7962626633" type="line"/>
			<point x="455" y="360.9164040061"/>
			<point x="458.2370330897" y="266.2081409622"/>
			<point x="468" y="200.7962626633" type="curve" smooth="yes"/>
			<point x="477.5202892732" y="146.8479567818"/>
			<point x="521" y="108.7962626633"/>
			<point x="580" y="108.7962626633" type="curve" smooth="yes"/>
			<point x="625" y="108.7962626633"/>
			<point x="650" y="131.7962626633"/>
			<point x="650" y="184.7962626633" type="curve" smooth="yes"/>
			<point x="650" y="222.7962626633"/>
			<point x="633" y="269.7962626633"/>
			<point x="633" y="400.7962626633" type="curve" smooth="yes"/>
			<point x="633" y="452.7962626633"/>
			<point x="634" y="505.7962626633"/>
			<point x="637" y="598.7962626633" type="curve"/>
			<point x="663" y="718.7962626633"/>
			<point x="630" y="783.7962626633"/>
			<point x="533" y="783.7962626633" type="curve" smooth="yes"/>
			<point x="498" y="783.7962626633"/>
			<point x="474" y="759.7962626633"/>
			<point x="474" y="717.7962626633" type="curve" smooth="yes"/>
			<point x="474" y="569.9459952836"/>
			<point x="382" y="525.7962626633"/>
			<point x="257" y="525.7962626633" type="curve" smooth="yes"/>
			<point x="222" y="525.7962626633"/>
			<point x="205" y="542.6851515522"/>
			<point x="205" y="565.7962626633" type="curve" smooth="yes"/>
			<point x="205" y="602.4326262997"/>
			<point x="248" y="656.7962626633"/>
			<point x="369" y="656.7962626633" type="curve" smooth="yes"/>
			<point x="415" y="656.7962626633"/>
			<point x="436" y="642.7962626633"/>
		</contour>
	</outline>
</glyph>
<glyph name="colon" format="2">
	<unicode hex="003A"/>
	<advance width="320"/>
	<outline>
		<contour>
			<point x="163" y="504.3863661184" type="curve" smooth="yes"/>
			<point x="240" y="504.3863661184"/>
			<point x="280" y="547.7014346116"/>
			<point x="280" y="597.3863661184" type="curve" smooth="yes"/>
			<point x="280" y="658.2435089755"/>
			<point x="241.8275862069" y="717.3863661184"/>
			<point x="145" y="717.3863661184" type="curve" smooth="yes"/>
			<point x="87.4680851064" y="717.3863661184"/>
			<point x="41" y="683.3863661184"/>
			<point x="41" y="621.3863661184" type="curve" smooth="yes"/>
			<point x="41" y="545.3863661184"/>
			<point x="86" y="504.3863661184"/>
		</contour>
		<contour>
			<point x="173" y="175.3863661184" type="curve" smooth="yes"/>
			<point x="243" y="175.3863661184"/>
			<point x="280" y="218.7014346116"/>
			<point x="280" y="268.3863661184" type="curve" smooth="yes"/>
			<point x="280" y="329.2435089755"/>
			<point x="240.6965517241" y="388.3863661184"/>
			<point x="141" y="388.3863661184" type="curve" smooth="yes"/>
			<point x="85.6808510638" y="388.3863661184"/>
			<point x="41" y="354.3863661184"/>
			<point x="41" y="292.3863661184" type="curve" smooth="yes"/>
			<point x="41" y="216.3863661184"/>
			<point x="89" y="175.3863661184"/>
		</contour>
	</outline>
</glyph>
<glyph name="B" format="2">
	<unicode hex="0042"/>
	<advance width="633"/>
	<outline>
		<contour>
			<point x="254" y="5.5837362098"/>
			<point x="228" y="48.5837362098"/>
			<point x="228" y="191.5837362098" type="curve" smooth="yes"/>
			<point x="228" y="269.5837362098"/>
			<point x="230" y="300.5837362098"/>
			<point x="237" y="379.5837362098" type="curve" smooth="yes"/>
			<point x="242" y="424.5837362098"/>
			<point x="204" y="473.5837362098"/>
			<point x="151" y="473.5837362098" type="curve" smooth="yes"/>
			<point x="127" y="473.5837362098"/>
			<point x="94" y="457.5837362098"/>
			<point x="85" y="423.5837362098" type="curve" smooth="yes"/>
			<point x="61" y="328.5837362098"/>
			<point x="55" y="282.5837362098"/>
			<point x="55" y="175.5837362098" type="curve" smooth="yes"/>
			<point x="55" y="-3.4162637902"/>
			<point x="130" y="-165.4162637902"/>
			<point x="257" y="-165.4162637902" type="curve" smooth="yes"/>
			<point x="383.2517482517" y="-165.4162637902"/>
			<point x="563" y="-102.4162637902"/>
			<point x="563" y="66.5837362098" type="curve" smooth="yes"/>
			<point x="563" y="133.5837362098"/>
			<point x="515" y="206.5837362098"/>
			<point x="372" y="222.5837362098" type="curve"/>
			<point x="381" y="167.5837362098" type="line"/>
			<point x="555" y="230.5837362098"/>
			<point x="589" y="307.5837362098"/>
			<point x="589" y="369.5837362098" type="curve" smooth="yes"/>
			<point x="589" y="512.5837362098"/>
			<point x="425.3165266106" y="556.5837362098"/>
			<point x="212" y="556.5837362098" type="curve" smooth="yes"/>
			<point x="75.1213872832" y="556.5837362098"/>
			<point x="27" y="512.5837362098"/>
			<point x="27" y="433.5837362098" type="curve" smooth="yes"/>
			<point x="27" y="394.5837362098"/>
			<point x="49" y="368.5837362098"/>
			<point x="91" y="368.5837362098" type="curve" smooth="yes"/>
			<point x="111" y="368.5837362098"/>
			<point x="160" y="372.5837362098"/>
			<point x="206" y="372.5837362098" type="curve" smooth="yes"/>
			<point x="395.6885245902" y="372.5837362098"/>
			<point x="409" y="366.5837362098"/>
			<point x="409" y="345.5837362098" type="curve" smooth="yes"/>
			<point x="409" y="309.5837362098"/>
			<point x="211.9512576" y="252.7126669527"/>
			<point x="159" y="237.5837362098" type="curve" smooth="yes"/>
			<point x="138" y="231.5837362098"/>
			<point x="120" y="203.5837362098"/>
			<point x="120" y="180.5837362098" type="curve" smooth="yes"/>
			<point x="120" y="131.5837362098"/>
			<point x="146" y="96.5837362098"/>
			<point x="183" y="97.5837362098" type="curve" smooth="yes"/>
			<point x="325.571956748" y="100.8993631109"/>
			<point x="393" y="88.5837362098"/>
			<point x="393" y="48.5837362098" type="curve" smooth="yes"/>
			<point x="393" y="37.5837362098"/>
			<point x="303.9813084112" y="5.5837362098"/>
			<point x="266" y="5.5837362098" type="curve" smooth="yes"/>
		</contour>
	</outline>
</glyph>
<glyph name="E" format="2">
	<unicode hex="0045"/>
	<advance width="704"/>
	<outline>
		<contour>
			<point x="96" y="331.8483498146" type="curve" smooth="yes"/>
			<point x="74" y="245.8483498146"/>
			<point x="69" y="161.8483498146"/>
			<point x="69" y="101.8483498146" type="curve" smooth="yes"/>
			<point x="69" y="-61.1516501854"/>
			<point x="163" y="-198.1516501854"/>
			<point x="362" y="-198.1516501854" type="curve" smooth="yes"/>
			<point x="558" y="-198.1516501854"/>
			<point x="664" y="-146.1516501854"/>
			<point x="664" y="-52.1516501854" type="curve" smooth="yes"/>
			<point x="664" y="-14.1516501854"/>
			<point x="651" y="9.8483498146"/>
			<point x="601" y="9.8483498146" type="curve" smooth="yes"/>
			<point x="559" y="9.8483498146"/>
			<point x="484" y="-23.1516501854"/>
			<point x="362" y="-23.1516501854" type="curve" smooth="yes"/>
			<point x="288" y="-23.1516501854"/>
			<point x="245" y="30.8483498146"/>
			<point x="245" y="99.8483498146" type="curve" smooth="yes"/>
			<point x="245" y="210.8483498146"/>
			<point x="269" y="308.8483498146"/>
			<point x="269" y="350.8483498146" type="curve" smooth="yes"/>
			<point x="269" y="391.8483498146"/>
			<point x="225" y="414.8483498146"/>
			<point x="200" y="414.8483498146" type="curve" smooth="yes"/>
			<point x="149" y="414.8483498146"/>
			<point x="110" y="385.8483498146"/>
		</contour>
		<contour>
			<point x="202" y="43.8483498146" type="curve" smooth="yes"/>
			<point x="271" y="59.8483498146"/>
			<point x="344" y="72.8483498146"/>
			<point x="478" y="80.8483498146" type="curve" smooth="yes"/>
			<point x="534" y="84.8483498146"/>
			<point x="575" y="120.8483498146"/>
			<point x="575" y="186.8483498146" type="curve" smooth="yes"/>
			<point x="575" y="240.8483498146"/>
			<point x="559" y="252.8483498146"/>
			<point x="489" y="252.8483498146" type="curve" smooth="yes"/>
			<point x="349" y="247.8483498146"/>
			<point x="273" y="233.8483498146"/>
			<point x="208" y="218.8483498146" type="curve" smooth="yes"/>
			<point x="171" y="209.8483498146"/>
			<point x="143" y="172.8483498146"/>
			<point x="143" y="130.8483498146" type="curve" smooth="yes"/>
			<point x="143" y="77.8483498146"/>
			<point x="155" y="33.8483498146"/>
		</contour>
		<contour>
			<point x="181" y="310.8483498146" type="curve" smooth="yes"/>
			<point x="241" y="310.8483498146"/>
			<point x="429" y="353.8483498146"/>
			<point x="626" y="353.8483498146" type="curve" smooth="yes"/>
			<point x="657" y="353.8483498146"/>
			<point x="667" y="376.8483498146"/>
			<point x="667" y="405.8483498146" type="curve" smooth="yes"/>
			<point x="667" y="469.8483498146"/>
			<point x="601" y="520.8483498146"/>
			<point x="490" y="520.8483498146" type="curve" smooth="yes"/>
			<point x="404" y="520.8483498146"/>
			<point x="232" y="506.8483498146"/>
			<point x="91" y="460.8483498146" type="curve" smooth="yes"/>
			<point x="57" y="449.8483498146"/>
			<point x="50" y="430.8483498146"/>
			<point x="50" y="405.8483498146" type="curve" smooth="yes"/>
			<point x="50" y="354.8483498146"/>
			<point x="95" y="310.8483498146"/>
		</contour>
	</outline>
</glyph>
<glyph name="H" format="2">
	<unicode hex="0048"/>
	<advance width="730"/>
	<outline>
		<contour>
			<point x="201" y="86.8893026034" type="curve" smooth="yes"/>
			<point x="243" y="86.8893026034"/>
			<point x="276" y="117.8893026034"/>
			<point x="276" y="154.8893026034" type="curve" smooth="yes"/>
			<point x="276" y="295.8893026034"/>
			<point x="261" y="500.8893026034"/>
			<point x="261" y="708.8893026034" type="curve" smooth="yes"/>
			<point x="261" y="775.8893026034"/>
			<point x="203" y="807.8893026034"/>
			<point x="146" y="807.8893026034" type="curve" smooth="yes"/>
			<point x="87" y="807.8893026034"/>
			<point x="62" y="788.8893026034"/>
			<point x="62" y="732.8893026034" type="curve" smooth="yes"/>
			<point x="62" y="676.8893026034"/>
			<point x="99" y="363.8893026034"/>
			<point x="91" y="217.8893026034" type="curve" smooth="yes"/>
			<point x="87" y="158.8893026034"/>
			<point x="149" y="86.8893026034"/>
		</contour>
		<contour>
			<point x="602" y="88.8893026034" type="curve" smooth="yes"/>
			<point x="643" y="88.8893026034"/>
			<point x="661" y="117.8893026034"/>
			<point x="661" y="143.8893026034" type="curve" smooth="yes"/>
			<point x="661" y="225.8893026034"/>
			<point x="643" y="274.8893026034"/>
			<point x="642" y="331.8893026034" type="curve" smooth="yes"/>
			<point x="641" y="414.8893026034"/>
			<point x="648" y="546.8893026034"/>
			<point x="648" y="652.8893026034" type="curve" smooth="yes"/>
			<point x="648" y="753.8893026034"/>
			<point x="603" y="802.8893026034"/>
			<point x="541" y="802.8893026034" type="curve" smooth="yes"/>
			<point x="507" y="802.8893026034"/>
			<point x="475" y="785.8893026034"/>
			<point x="475" y="746.8893026034" type="curve" smooth="yes"/>
			<point x="475" y="659.8893026034"/>
			<point x="460" y="528.8893026034"/>
			<point x="460" y="389.8893026034" type="curve" smooth="yes"/>
			<point x="460" y="201.8893026034"/>
			<point x="506" y="88.8893026034"/>
		</contour>
		<contour>
			<point x="206" y="374.8893026034" type="curve" smooth="yes"/>
			<point x="267" y="374.8893026034"/>
			<point x="366" y="404.8893026034"/>
			<point x="638" y="404.8893026034" type="curve" smooth="yes"/>
			<point x="669" y="404.8893026034"/>
			<point x="687" y="425.8893026034"/>
			<point x="687" y="458.8893026034" type="curve" smooth="yes"/>
			<point x="687" y="499.8893026034"/>
			<point x="644" y="567.8893026034"/>
			<point x="525" y="567.8893026034" type="curve" smooth="yes"/>
			<point x="375" y="567.8893026034"/>
			<point x="220" y="565.8893026034"/>
			<point x="77" y="521.8893026034" type="curve" smooth="yes"/>
			<point x="49" y="513.8893026034"/>
			<point x="43" y="499.8893026034"/>
			<point x="43" y="477.8893026034" type="curve" smooth="yes"/>
			<point x="43" y="427.8893026034"/>
			<point x="101" y="374.8893026034"/>
		</contour>
	</outline>
</glyph>
<glyph name="S" format="2">
	<unicode hex="0053"/>
	<advance width="603"/>
	<outline>
		<contour>
			<point x="262" y="186.1117605474" type="curve" smooth="yes"/>
			<point x="459" y="186.1117605474"/>
			<point x="556" y="241.1117605474"/>
			<point x="556" y="363.1117605474" type="curve" smooth="yes"/>
			<point x="556" y="557.1117605474"/>
			<point x="226" y="580.1117605474"/>
			<point x="226" y="646.1117605474" type="curve" smooth="yes"/>
			<point x="226" y="676.1117605474"/>
			<point x="331" y="710.1117605474"/>
			<point x="480" y="741.1117605474" type="curve" smooth="yes"/>
			<point x="512" y="747.1117605474"/>
			<point x="534" y="776.1117605474"/>
			<point x="534" y="810.1117605474" type="curve" smooth="yes"/>
			<point x="534" y="859.1117605474"/>
			<point x="510" y="905.1117605474"/>
			<point x="438" y="905.1117605474" type="curve" smooth="yes"/>
			<point x="315" y="905.1117605474"/>
			<point x="47" y="807.1117605474"/>
			<point x="47" y="650.1117605474" type="curve" smooth="yes"/>
			<point x="47" y="452.1117605474"/>
			<point x="342" y="431.1117605474"/>
			<point x="375" y="367.1117605474" type="curve"/>
			<point x="330" y="356.1117605474"/>
			<point x="304" y="353.1117605474"/>
			<point x="241" y="353.1117605474" type="curve" smooth="yes"/>
			<point x="166" y="353.1117605474"/>
			<point x="148" y="380.1117605474"/>
			<point x="112" y="380.1117605474" type="curve" smooth="yes"/>
			<point x="70" y="380.1117605474"/>
			<point x="60" y="359.1117605474"/>
			<point x="60" y="324.1117605474" type="curve" smooth="yes"/>
			<point x="60" y="254.1117605474"/>
			<point x="131" y="186.1117605474"/>
		</contour>
	</outline>
</glyph>
<glyph name="W" format="2">
	<unicode hex="0057"/>
	<advance width="1005"/>
	<outline>
		<contour>
			<point x="230" y="448.9776892531" type="curve" smooth="yes"/>
			<point x="227" y="498.9776892531"/>
			<point x="180" y="541.9776892531"/>
			<point x="93" y="541.9776892531" type="curve" smooth="yes"/>
			<point x="48" y="541.9776892531"/>
			<point x="31" y="505.9776892531"/>
			<point x="34" y="460.9776892531" type="curve" smooth="yes"/>
			<point x="46" y="279.9776892531"/>
			<point x="96" y="84.9776892531"/>
			<point x="163" y="-86.0223107469" type="curve" smooth="yes"/>
			<point x="195" y="-167.0223107469"/>
			<point x="236" y="-178.0223107469"/>
			<point x="263" y="-178.0223107469" type="curve" smooth="yes"/>
			<point x="306" y="-178.0223107469"/>
			<point x="327" y="-157.0223107469"/>
			<point x="341" y="-111.0223107469" type="curve" smooth="yes"/>
			<point x="392" y="51.9776892531"/>
			<point x="448" y="181.9776892531"/>
			<point x="524" y="270.9776892531" type="curve" smooth="yes"/>
			<point x="546" y="295.9776892531"/>
			<point x="443" y="320.9776892531"/>
			<point x="466" y="289.9776892531" type="curve" smooth="yes"/>
			<point x="530" y="204.9776892531"/>
			<point x="563" y="-4.0223107469"/>
			<point x="648" y="-111.0223107469" type="curve" smooth="yes"/>
			<point x="687" y="-160.0223107469"/>
			<point x="719" y="-182.0223107469"/>
			<point x="772" y="-182.0223107469" type="curve" smooth="yes"/>
			<point x="797" y="-182.0223107469"/>
			<point x="823" y="-171.0223107469"/>
			<point x="841" y="-128.0223107469" type="curve" smooth="yes"/>
			<point x="902" y="22.9776892531"/>
			<point x="918" y="244.9776892531"/>
			<point x="960" y="388.9776892531" type="curve" smooth="yes"/>
			<point x="978" y="451.9776892531"/>
			<point x="962" y="541.9776892531"/>
			<point x="859" y="541.9776892531" type="curve" smooth="yes"/>
			<point x="831" y="541.9776892531"/>
			<point x="808" y="532.9776892531"/>
			<point x="792" y="500.9776892531" type="curve" smooth="yes"/>
			<point x="765" y="450.9776892531"/>
			<point x="743" y="196.9776892531"/>
			<point x="701" y="71.9776892531" type="curve" smooth="yes"/>
			<point x="677" y="-1.0223107469"/>
			<point x="834" y="-27.0223107469"/>
			<point x="786" y="36.9776892531" type="curve" smooth="yes"/>
			<point x="698" y="165.9776892531"/>
			<point x="663" y="366.9776892531"/>
			<point x="625" y="423.9776892531" type="curve" smooth="yes"/>
			<point x="598" y="464.9776892531"/>
			<point x="572" y="481.9776892531"/>
			<point x="517" y="481.9776892531" type="curve" smooth="yes"/>
			<point x="475" y="481.9776892531"/>
			<point x="442" y="460.9776892531"/>
			<point x="408" y="419.9776892531" type="curve" smooth="yes"/>
			<point x="342" y="338.9776892531"/>
			<point x="281" y="236.9776892531"/>
			<point x="219" y="57.9776892531" type="curve" smooth="yes"/>
			<point x="204" y="15.9776892531"/>
			<point x="320" y="8.9776892531"/>
			<point x="275" y="146.9776892531" type="curve" smooth="yes"/>
			<point x="247" y="241.9776892531"/>
			<point x="239" y="316.9776892531"/>
		</contour>
	</outline>
</glyph>
<glyph name="X" format="2">
	<unicode hex="0058"/>
	<advance width="696"/>
	<outline>
		<contour>
			<point x="251" y="687.7684994209" type="curve" smooth="yes"/>
			<point x="344" y="431.7684994209"/>
			<point x="523" y="369.7684994209"/>
			<point x="620" y="244.7684994209" type="curve" smooth="yes"/>
			<point x="705" y="136.7684994209"/>
			<point x="646" y="39.7684994209"/>
			<point x="560" y="39.7684994209" type="curve" smooth="yes"/>
			<point x="519" y="39.7684994209"/>
			<point x="480" y="62.7684994209"/>
			<point x="450" y="112.7684994209" type="curve" smooth="yes"/>
			<point x="380" y="228.7684994209"/>
			<point x="94" y="449.7684994209"/>
			<point x="44" y="604.7684994209" type="curve" smooth="yes"/>
			<point x="6" y="715.7684994209"/>
			<point x="36" y="764.7684994209"/>
			<point x="140" y="764.7684994209" type="curve" smooth="yes"/>
			<point x="198" y="764.7684994209"/>
			<point x="239" y="721.7684994209"/>
		</contour>
		<contour>
			<point x="621" y="589.7684994209" type="curve" smooth="yes"/>
			<point x="494" y="453.7684994209"/>
			<point x="298" y="256.7684994209"/>
			<point x="211" y="103.7684994209" type="curve" smooth="yes"/>
			<point x="188" y="62.7684994209"/>
			<point x="169" y="46.7684994209"/>
			<point x="128" y="46.7684994209" type="curve" smooth="yes"/>
			<point x="65" y="46.7684994209"/>
			<point x="32" y="137.7684994209"/>
			<point x="101" y="246.7684994209" type="curve" smooth="yes"/>
			<point x="245" y="474.7684994209"/>
			<point x="396" y="638.7684994209"/>
			<point x="481" y="714.7684994209" type="curve" smooth="yes"/>
			<point x="515" y="746.7684994209"/>
			<point x="537" y="758.7684994209"/>
			<point x="571" y="758.7684994209" type="curve" smooth="yes"/>
			<point x="635" y="758.7684994209"/>
			<point x="688" y="659.7684994209"/>
		</contour>
	</outline>
</glyph>
<glyph name="Y" format="2">
	<unicode hex="0059"/>
	<advance width="636"/>
	<outline>
		<contour>
			<point x="568" y="396.9504049112" type="curve" smooth="yes"/>
			<point x="442" y="300.9504049112"/>
			<point x="332" y="73.9504049112"/>
			<point x="292" y="-107.0495950888" type="curve" smooth="yes"/>
			<point x="285" y="-137.0495950888"/>
			<point x="263" y="-151.0495950888"/>
			<point x="222" y="-151.0495950888" type="curve" smooth="yes"/>
			<point x="162" y="-151.0495950888"/>
			<point x="132" y="-93.0495950888"/>
			<point x="149" y="-8.0495950888" type="curve" smooth="yes"/>
			<point x="180" y="154.9504049112"/>
			<point x="312" y="417.9504049112"/>
			<point x="479" y="548.9504049112" type="curve" smooth="yes"/>
			<point x="507" y="570.9504049112"/>
			<point x="522" y="575.9504049112"/>
			<point x="537" y="575.9504049112" type="curve" smooth="yes"/>
			<point x="578" y="575.9504049112"/>
			<point x="607" y="534.9504049112"/>
			<point x="607" y="483.9504049112" type="curve" smooth="yes"/>
			<point x="607" y="449.9504049112"/>
			<point x="599" y="422.9504049112"/>
		</contour>
		<contour>
			<point x="163" y="520.9504049112" type="curve" smooth="yes"/>
			<point x="234" y="394.9504049112"/>
			<point x="270" y="388.9504049112"/>
			<point x="348" y="235.9504049112" type="curve" smooth="yes"/>
			<point x="372" y="187.9504049112"/>
			<point x="347" y="104.9504049112"/>
			<point x="296" y="104.9504049112" type="curve" smooth="yes"/>
			<point x="270" y="104.9504049112"/>
			<point x="250" y="115.9504049112"/>
			<point x="238" y="136.9504049112" type="curve" smooth="yes"/>
			<point x="146" y="289.9504049112"/>
			<point x="109" y="295.9504049112"/>
			<point x="43" y="386.9504049112" type="curve" smooth="yes"/>
			<point x="23" y="414.9504049112"/>
			<point x="11" y="443.9504049112"/>
			<point x="11" y="486.9504049112" type="curve" smooth="yes"/>
			<point x="11" y="537.9504049112"/>
			<point x="40" y="572.9504049112"/>
			<point x="77" y="572.9504049112" type="curve" smooth="yes"/>
			<point x="112" y="572.9504049112"/>
			<point x="138" y="564.9504049112"/>
		</contour>
	</outline>
</glyph>
<glyph name="d" format="2">
	<unicode hex="0064"/>
	<advance width="708"/>
	<outline>
		<contour>
			<point x="293" y="-81.248249938" type="curve" smooth="yes"/>
			<point x="369" y="-81.248249938"/>
			<point x="481" y="-30.248249938"/>
			<point x="529" y="119.751750062" type="curve"/>
			<point x="432" y="90.751750062" type="line"/>
			<point x="432" y="-5.248249938"/>
			<point x="493" y="-92.248249938"/>
			<point x="577" y="-92.248249938" type="curve" smooth="yes"/>
			<point x="634" y="-92.248249938"/>
			<point x="672" y="-44.248249938"/>
			<point x="672" y="-1.248249938" type="curve" smooth="yes"/>
			<point x="672" y="37.751750062"/>
			<point x="597" y="20.751750062"/>
			<point x="597" y="221.751750062" type="curve" smooth="yes"/>
			<point x="597" y="346.751750062"/>
			<point x="628" y="423.751750062"/>
			<point x="638" y="570.751750062" type="curve" smooth="yes"/>
			<point x="644" y="679.751750062"/>
			<point x="599" y="737.751750062"/>
			<point x="512" y="737.751750062" type="curve" smooth="yes"/>
			<point x="481" y="737.751750062"/>
			<point x="458" y="721.751750062"/>
			<point x="458" y="668.751750062" type="curve" smooth="yes"/>
			<point x="458" y="298.751750062"/>
			<point x="385" y="93.751750062"/>
			<point x="288" y="93.751750062" type="curve" smooth="yes"/>
			<point x="257" y="93.751750062"/>
			<point x="214" y="156.751750062"/>
			<point x="214" y="206.751750062" type="curve" smooth="yes"/>
			<point x="214" y="253.751750062"/>
			<point x="259" y="279.751750062"/>
			<point x="327" y="279.751750062" type="curve" smooth="yes"/>
			<point x="388" y="279.751750062"/>
			<point x="399" y="260.751750062"/>
			<point x="426" y="260.751750062" type="curve" smooth="yes"/>
			<point x="446" y="260.751750062"/>
			<point x="462" y="283.751750062"/>
			<point x="462" y="316.751750062" type="curve" smooth="yes"/>
			<point x="462" y="407.751750062"/>
			<point x="393" y="454.751750062"/>
			<point x="282" y="454.751750062" type="curve" smooth="yes"/>
			<point x="131" y="456.751750062"/>
			<point x="30" y="356.751750062"/>
			<point x="30" y="206.751750062" type="curve" smooth="yes"/>
			<point x="30" y="51.751750062"/>
			<point x="138" y="-81.248249938"/>
		</contour>
	</outline>
</glyph>
<glyph name="e" format="2">
	<unicode hex="0065"/>
	<advance width="617"/>
	<outline>
		<contour>
			<point x="267" y="-1.1408151063" type="curve" smooth="yes"/>
			<point x="407" y="-1.1408151063"/>
			<point x="526" y="46.8591848937"/>
			<point x="526" y="161.8591848937" type="curve" smooth="yes"/>
			<point x="526" y="276.8591848937"/>
			<point x="443" y="337.8591848937"/>
			<point x="323" y="337.8591848937" type="curve" smooth="yes"/>
			<point x="141" y="337.8591848937"/>
			<point x="25" y="169.8591848937"/>
			<point x="25" y="22.8591848937" type="curve" smooth="yes"/>
			<point x="25" y="-105.1408151063"/>
			<point x="105" y="-197.1408151063"/>
			<point x="289" y="-197.1408151063" type="curve" smooth="yes"/>
			<point x="463" y="-197.1408151063"/>
			<point x="573" y="-118.1408151063"/>
			<point x="573" y="-42.1408151063" type="curve" smooth="yes"/>
			<point x="573" y="-6.1408151063"/>
			<point x="559" y="11.8591848937"/>
			<point x="530" y="11.8591848937" type="curve" smooth="yes"/>
			<point x="475" y="11.8591848937"/>
			<point x="432" y="-41.1408151063"/>
			<point x="272" y="-41.1408151063" type="curve" smooth="yes"/>
			<point x="213" y="-41.1408151063"/>
			<point x="194" y="-29.1408151063"/>
			<point x="194" y="-0.1408151063" type="curve" smooth="yes"/>
			<point x="194" y="83.8591848937"/>
			<point x="258" y="167.8591848937"/>
			<point x="347" y="167.8591848937" type="curve" smooth="yes"/>
			<point x="361" y="167.8591848937"/>
			<point x="367" y="161.8591848937"/>
			<point x="367" y="150.8591848937" type="curve" smooth="yes"/>
			<point x="367" y="119.8591848937"/>
			<point x="296" y="93.8591848937"/>
			<point x="248" y="93.8591848937" type="curve" smooth="yes"/>
			<point x="216" y="93.8591848937"/>
			<point x="198" y="98.8591848937"/>
			<point x="184" y="98.8591848937" type="curve" smooth="yes"/>
			<point x="163" y="98.8591848937"/>
			<point x="154" y="88.8591848937"/>
			<point x="154" y="68.8591848937" type="curve" smooth="yes"/>
			<point x="154" y="31.8591848937"/>
			<point x="197" y="-1.1408151063"/>
		</contour>
	</outline>
</glyph>
<glyph name="h" format="2">
	<unicode hex="0068"/>
	<advance width="693"/>
	<outline>
		<contour>
			<point x="593" y="121.3835243586" type="curve" smooth="yes"/>
			<point x="638" y="121.3835243586"/>
			<point x="672" y="147.3835243586"/>
			<point x="672" y="181.3835243586" type="curve" smooth="yes"/>
			<point x="672" y="197.3835243586"/>
			<point x="667" y="212.3835243586"/>
			<point x="660" y="226.3835243586" type="curve" smooth="yes"/>
			<point x="642" y="258.3835243586"/>
			<point x="607" y="290.3835243586"/>
			<point x="596" y="401.3835243586" type="curve" smooth="yes"/>
			<point x="581" y="567.3835243586"/>
			<point x="549" y="665.3835243586"/>
			<point x="429" y="665.3835243586" type="curve" smooth="yes"/>
			<point x="346" y="665.3835243586"/>
			<point x="265" y="588.3835243586"/>
			<point x="194" y="430.3835243586" type="curve"/>
			<point x="230" y="357.3835243586" type="line"/>
			<point x="230" y="580.3835243586"/>
			<point x="252" y="679.3835243586"/>
			<point x="252" y="760.3835243586" type="curve" smooth="yes"/>
			<point x="252" y="903.3835243586"/>
			<point x="188" y="943.3835243586"/>
			<point x="136" y="943.3835243586" type="curve" smooth="yes"/>
			<point x="82" y="943.3835243586"/>
			<point x="63" y="914.3835243586"/>
			<point x="63" y="884.3835243586" type="curve" smooth="yes"/>
			<point x="63" y="843.3835243586"/>
			<point x="78" y="815.3835243586"/>
			<point x="78" y="738.3835243586" type="curve" smooth="yes"/>
			<point x="78" y="622.3835243586"/>
			<point x="55" y="479.3835243586"/>
			<point x="55" y="268.3835243586" type="curve" smooth="yes"/>
			<point x="55" y="193.3835243586"/>
			<point x="103" y="123.3835243586"/>
			<point x="163" y="123.3835243586" type="curve" smooth="yes"/>
			<point x="192" y="123.3835243586"/>
			<point x="213" y="134.3835243586"/>
			<point x="232" y="175.3835243586" type="curve" smooth="yes"/>
			<point x="308" y="343.3835243586"/>
			<point x="379" y="441.3835243586"/>
			<point x="416" y="454.3835243586" type="curve"/>
			<point x="423" y="422.3835243586"/>
			<point x="428" y="384.3835243586"/>
			<point x="434" y="282.3835243586" type="curve" smooth="yes"/>
			<point x="440" y="194.3835243586"/>
			<point x="495" y="121.3835243586"/>
		</contour>
	</outline>
</glyph>
<glyph name="j" format="2">
	<unicode hex="006A"/>
	<advance width="345"/>
	<outline>
		<contour>
			<point x="217" y="309.8691339661" type="curve" smooth="yes"/>
			<point x="253" y="120.8691339661"/>
			<point x="273" y="-45.1308660339"/>
			<point x="273" y="-196.1308660339" type="curve" smooth="yes"/>
			<point x="273" y="-341.1308660339"/>
			<point x="190" y="-416.1308660339"/>
			<point x="64" y="-416.1308660339" type="curve" smooth="yes"/>
			<point x="-34" y="-416.1308660339"/>
			<point x="-90" y="-356.1308660339"/>
			<point x="-90" y="-283.1308660339" type="curve" smooth="yes"/>
			<point x="-90" y="-244.1308660339"/>
			<point x="-70" y="-222.1308660339"/>
			<point x="-41" y="-222.1308660339" type="curve" smooth="yes"/>
			<point x="-6" y="-222.1308660339"/>
			<point x="12" y="-244.1308660339"/>
			<point x="55" y="-244.1308660339" type="curve" smooth="yes"/>
			<point x="86" y="-244.1308660339"/>
			<point x="103" y="-219.1308660339"/>
			<point x="103" y="-182.1308660339" type="curve" smooth="yes"/>
			<point x="103" y="27.8691339661"/>
			<point x="50" y="109.8691339661"/>
			<point x="50" y="245.8691339661" type="curve" smooth="yes"/>
			<point x="50" y="333.8691339661"/>
			<point x="96" y="367.8691339661"/>
			<point x="143" y="367.8691339661" type="curve" smooth="yes"/>
			<point x="183" y="367.8691339661"/>
			<point x="207" y="356.8691339661"/>
		</contour>
		<contour>
			<point x="158" y="442.8691339661" type="curve" smooth="yes"/>
			<point x="216" y="442.8691339661"/>
			<point x="238" y="492.8691339661"/>
			<point x="238" y="538.8691339661" type="curve" smooth="yes"/>
			<point x="238" y="592.8691339661"/>
			<point x="204" y="660.8691339661"/>
			<point x="143" y="660.8691339661" type="curve" smooth="yes"/>
			<point x="84" y="660.8691339661"/>
			<point x="37" y="612.8691339661"/>
			<point x="37" y="545.8691339661" type="curve" smooth="yes"/>
			<point x="37" y="492.8691339661"/>
			<point x="91" y="442.8691339661"/>
		</contour>
	</outline>
</glyph>
<glyph name="o" format="2">
	<unicode hex="006F"/>
	<advance width="678"/>
	<outline>
		<contour>
			<point x="354" y="152.6425025912" type="curve" smooth="yes"/>
			<point x="513" y="152.6425025912"/>
			<point x="634" y="272.6425025912"/>
			<point x="634" y="430.6425025912" type="curve" smooth="yes"/>
			<point x="634" y="584.6425025912"/>
			<point x="530" y="680.6425025912"/>
			<point x="350" y="680.6425025912" type="curve" smooth="yes"/>
			<point x="265" y="680.6425025912"/>
			<point x="170" y="592.6425025912"/>
			<point x="170" y="509.6425025912" type="curve" smooth="yes"/>
			<point x="170" y="449.6425025912"/>
			<point x="195" y="433.6425025912"/>
			<point x="220" y="433.6425025912" type="curve" smooth="yes"/>
			<point x="252" y="433.6425025912"/>
			<point x="269" y="443.6425025912"/>
			<point x="297" y="471.6425025912" type="curve" smooth="yes"/>
			<point x="322" y="496.6425025912"/>
			<point x="336" y="511.6425025912"/>
			<point x="362" y="511.6425025912" type="curve" smooth="yes"/>
			<point x="422" y="511.6425025912"/>
			<point x="464" y="476.6425025912"/>
			<point x="464" y="422.6425025912" type="curve" smooth="yes"/>
			<point x="464" y="360.6425025912"/>
			<point x="416" y="318.6425025912"/>
			<point x="349" y="318.6425025912" type="curve" smooth="yes"/>
			<point x="267" y="318.6425025912"/>
			<point x="215" y="360.6425025912"/>
			<point x="215" y="423.6425025912" type="curve" smooth="yes"/>
			<point x="215" y="462.6425025912"/>
			<point x="257" y="500.6425025912"/>
			<point x="296" y="512.6425025912" type="curve" smooth="yes"/>
			<point x="364" y="533.6425025912"/>
			<point x="381" y="576.6425025912"/>
			<point x="381" y="630.6425025912" type="curve" smooth="yes"/>
			<point x="381" y="675.6425025912"/>
			<point x="343" y="693.6425025912"/>
			<point x="304" y="693.6425025912" type="curve" smooth="yes"/>
			<point x="178" y="693.6425025912"/>
			<point x="44" y="559.6425025912"/>
			<point x="44" y="430.6425025912" type="curve" smooth="yes"/>
			<point x="44" y="268.6425025912"/>
			<point x="174" y="152.6425025912"/>
		</contour>
	</outline>
</glyph>
<glyph name="p" format="2">
	<unicode hex="0070"/>
	<advance width="610"/>
	<outline>
		<contour>
			<point x="211" y="504.8408109764" type="curve" smooth="yes"/>
			<point x="211" y="353.8408109764"/>
			<point x="257" y="238.8408109764"/>
			<point x="257" y="100.8408109764" type="curve" smooth="yes"/>
			<point x="257" y="2.8408109764"/>
			<point x="250" y="-114.1591890236"/>
			<point x="157" y="-114.1591890236" type="curve" smooth="yes"/>
			<point x="114" y="-114.1591890236"/>
			<point x="63" y="-79.1591890236"/>
			<point x="63" y="-4.1591890236" type="curve" smooth="yes"/>
			<point x="63" y="58.8408109764"/>
			<point x="75" y="82.8408109764"/>
			<point x="75" y="148.8408109764" type="curve" smooth="yes"/>
			<point x="75" y="299.8408109764"/>
			<point x="36" y="412.8408109764"/>
			<point x="25" y="552.8408109764" type="curve" smooth="yes"/>
			<point x="23" y="581.8408109764"/>
			<point x="46" y="602.8408109764"/>
			<point x="80" y="602.8408109764" type="curve" smooth="yes"/>
			<point x="145" y="602.8408109764"/>
			<point x="211" y="557.8408109764"/>
		</contour>
		<contour>
			<point x="233" y="674.8408109764" type="curve" smooth="yes"/>
			<point x="422" y="674.8408109764"/>
			<point x="584" y="557.8408109764"/>
			<point x="584" y="346.8408109764" type="curve" smooth="yes"/>
			<point x="584" y="249.8408109764"/>
			<point x="494" y="136.8408109764"/>
			<point x="342" y="136.8408109764" type="curve" smooth="yes"/>
			<point x="219" y="136.8408109764"/>
			<point x="126" y="215.8408109764"/>
			<point x="126" y="307.8408109764" type="curve" smooth="yes"/>
			<point x="126" y="332.8408109764"/>
			<point x="150" y="358.8408109764"/>
			<point x="174" y="358.8408109764" type="curve" smooth="yes"/>
			<point x="219" y="358.8408109764"/>
			<point x="250" y="305.8408109764"/>
			<point x="313" y="305.8408109764" type="curve" smooth="yes"/>
			<point x="366" y="305.8408109764"/>
			<point x="402" y="324.8408109764"/>
			<point x="402" y="373.8408109764" type="curve" smooth="yes"/>
			<point x="402" y="456.8408109764"/>
			<point x="298" y="499.8408109764"/>
			<point x="226" y="499.8408109764" type="curve" smooth="yes"/>
			<point x="213" y="499.8408109764"/>
			<point x="205" y="494.8408109764"/>
			<point x="178" y="494.8408109764" type="curve" smooth="yes"/>
			<point x="133" y="494.8408109764"/>
			<point x="84" y="534.8408109764"/>
			<point x="84" y="583.8408109764" type="curve" smooth="yes"/>
			<point x="84" y="655.8408109764"/>
			<point x="135" y="674.8408109764"/>
		</contour>
	</outline>
</glyph>
<glyph name="r" format="2">
	<unicode hex="0072"/>
	<advance width="528"/>
	<outline>
		<contour>
			<point x="183" y="-134.1520949059" type="curve" smooth="yes"/>
			<point x="229" y="-134.1520949059"/>
			<point x="240" y="-110.1520949059"/>
			<point x="255" y="-26.1520949059" type="curve" smooth="yes"/>
			<point x="273" y="79.8479050941"/>
			<point x="313" y="142.8479050941"/>
			<point x="478" y="209.8479050941" type="curve" smooth="yes"/>
			<point x="524" y="228.8479050941"/>
			<point x="532" y="257.8479050941"/>
			<point x="532" y="287.8479050941" type="curve" smooth="yes"/>
			<point x="532" y="354.8479050941"/>
			<point x="515" y="398.8479050941"/>
			<point x="465" y="398.8479050941" type="curve" smooth="yes"/>
			<point x="360" y="398.8479050941"/>
			<point x="233" y="295.8479050941"/>
			<point x="174" y="142.8479050941" type="curve"/>
			<point x="245" y="180.8479050941" type="line"/>
			<point x="218" y="338.8479050941"/>
			<point x="177" y="388.8479050941"/>
			<point x="78" y="388.8479050941" type="curve" smooth="yes"/>
			<point x="46" y="388.8479050941"/>
			<point x="21" y="371.8479050941"/>
			<point x="21" y="345.8479050941" type="curve" smooth="yes"/>
			<point x="21" y="326.8479050941"/>
			<point x="24" y="314.8479050941"/>
			<point x="40" y="280.8479050941" type="curve" smooth="yes"/>
			<point x="71" y="213.8479050941"/>
			<point x="81" y="131.8479050941"/>
			<point x="81" y="-7.1520949059" type="curve" smooth="yes"/>
			<point x="81" y="-77.1520949059"/>
			<point x="131" y="-134.1520949059"/>
		</contour>
	</outline>
</glyph>
<glyph name="x" format="2">
	<unicode hex="0078"/>
	<advance width="589"/>
	<outline>
		<contour>
			<point x="509" y="471.3146803959" type="curve" smooth="yes"/>
			<point x="364" y="384.3146803959"/>
			<point x="225" y="241.3146803959"/>
			<point x="181" y="43.3146803959" type="curve" smooth="yes"/>
			<point x="169" y="-8.6853196041"/>
			<point x="140" y="-50.6853196041"/>
			<point x="103" y="-50.6853196041" type="curve" smooth="yes"/>
			<point x="74" y="-50.6853196041"/>
			<point x="35" y="-35.6853196041"/>
			<point x="35" y="56.3146803959" type="curve" smooth="yes"/>
			<point x="35" y="221.3146803959"/>
			<point x="198" y="482.3146803959"/>
			<point x="376" y="596.3146803959" type="curve" smooth="yes"/>
			<point x="412" y="619.3146803959"/>
			<point x="449" y="631.3146803959"/>
			<point x="466" y="631.3146803959" type="curve" smooth="yes"/>
			<point x="520" y="631.3146803959"/>
			<point x="543" y="595.3146803959"/>
			<point x="543" y="529.3146803959" type="curve" smooth="yes"/>
			<point x="543" y="503.3146803959"/>
			<point x="535" y="487.3146803959"/>
		</contour>
		<contour>
			<point x="520" y="252.3146803959" type="curve" smooth="yes"/>
			<point x="561" y="194.3146803959"/>
			<point x="567" y="167.3146803959"/>
			<point x="567" y="148.3146803959" type="curve" smooth="yes"/>
			<point x="567" y="111.3146803959"/>
			<point x="537" y="90.3146803959"/>
			<point x="481" y="90.3146803959" type="curve" smooth="yes"/>
			<point x="459" y="90.3146803959"/>
			<point x="425" y="98.3146803959"/>
			<point x="388" y="149.3146803959" type="curve" smooth="yes"/>
			<point x="319" y="245.3146803959"/>
			<point x="164" y="382.3146803959"/>
			<point x="87" y="459.3146803959" type="curve" smooth="yes"/>
			<point x="57" y="488.3146803959"/>
			<point x="40" y="510.3146803959"/>
			<point x="40" y="551.3146803959" type="curve" smooth="yes"/>
			<point x="40" y="584.3146803959"/>
			<point x="61" y="631.3146803959"/>
			<point x="102" y="631.3146803959" type="curve" smooth="yes"/>
			<point x="114" y="631.3146803959"/>
			<point x="139" y="634.3146803959"/>
			<point x="179" y="603.3146803959" type="curve" smooth="yes"/>
			<point x="250" y="550.3146803959"/>
			<point x="455" y="341.3146803959"/>
		</contour>
	</outline>
</glyph>
<glyph name="y" format="2">
	<unicode hex="0079"/>
	<advance width="623"/>
	<outline>
		<contour>
			<point x="235" y="356.292169657" type="curve" smooth="yes"/>
			<point x="235" y="400.292169657"/>
			<point x="206" y="444.292169657"/>
			<point x="116" y="444.292169657" type="curve" smooth="yes"/>
			<point x="72" y="444.292169657"/>
			<point x="38" y="415.292169657"/>
			<point x="38" y="264.292169657" type="curve" smooth="yes"/>
			<point x="38" y="79.292169657"/>
			<point x="124" y="-0.707830343"/>
			<point x="266" y="-0.707830343" type="curve" smooth="yes"/>
			<point x="321" y="-0.707830343"/>
			<point x="398" y="21.292169657"/>
			<point x="454" y="126.292169657" type="curve" smooth="yes"/>
			<point x="468" y="153.292169657"/>
			<point x="403" y="176.292169657"/>
			<point x="403" y="162.292169657" type="curve" smooth="yes"/>
			<point x="403" y="70.292169657"/>
			<point x="408" y="20.292169657"/>
			<point x="408" y="-83.707830343" type="curve" smooth="yes"/>
			<point x="408" y="-130.707830343"/>
			<point x="390" y="-162.707830343"/>
			<point x="323" y="-162.707830343" type="curve" smooth="yes"/>
			<point x="194" y="-162.707830343"/>
			<point x="172" y="-122.707830343"/>
			<point x="121" y="-122.707830343" type="curve" smooth="yes"/>
			<point x="88" y="-122.707830343"/>
			<point x="74" y="-139.707830343"/>
			<point x="74" y="-188.707830343" type="curve" smooth="yes"/>
			<point x="74" y="-274.707830343"/>
			<point x="140" y="-339.707830343"/>
			<point x="329" y="-339.707830343" type="curve" smooth="yes"/>
			<point x="439" y="-339.707830343"/>
			<point x="575" y="-263.707830343"/>
			<point x="575" y="-83.707830343" type="curve" smooth="yes"/>
			<point x="575" y="107.292169657"/>
			<point x="535" y="153.292169657"/>
			<point x="552" y="321.292169657" type="curve" smooth="yes"/>
			<point x="562" y="418.292169657"/>
			<point x="479" y="443.292169657"/>
			<point x="434" y="443.292169657" type="curve" smooth="yes"/>
			<point x="400" y="443.292169657"/>
			<point x="389" y="436.292169657"/>
			<point x="385" y="399.292169657" type="curve" smooth="yes"/>
			<point x="373" y="272.292169657"/>
			<point x="326" y="174.292169657"/>
			<point x="256" y="174.292169657" type="curve" smooth="yes"/>
			<point x="185" y="174.292169657"/>
			<point x="235" y="292.292169657"/>
		</contour>
	</outline>
</glyph>
<glyph name="copyright" format="2">
	<unicode hex="00A9"/>
	<advance width="965"/>
	<outline>
		<contour>
			<point x="358" y="711.806171826" type="curve" smooth="yes"/>
			<point x="240" y="641.806171826"/>
			<point x="198" y="554.806171826"/>
			<point x="198" y="439.806171826" type="curve" smooth="yes"/>
			<point x="198" y="318.806171826"/>
			<point x="275" y="216.806171826"/>
			<point x="449" y="216.806171826" type="curve" smooth="yes"/>
			<point x="657" y="216.806171826"/>
			<point x="776" y="334.806171826"/>
			<point x="776" y="540.806171826" type="curve" smooth="yes"/>
			<point x="776" y="691.806171826"/>
			<point x="707" y="786.806171826"/>
			<point x="534" y="785.806171826" type="curve" smooth="yes"/>
			<point x="391" y="784.806171826"/>
			<point x="332" y="732.806171826"/>
			<point x="265" y="681.806171826" type="curve" smooth="yes"/>
			<point x="244" y="665.806171826"/>
			<point x="217" y="654.806171826"/>
			<point x="192" y="654.806171826" type="curve" smooth="yes"/>
			<point x="150" y="654.806171826"/>
			<point x="135" y="674.806171826"/>
			<point x="135" y="708.806171826" type="curve" smooth="yes"/>
			<point x="135" y="774.806171826"/>
			<point x="293" y="912.806171826"/>
			<point x="533" y="912.806171826" type="curve" smooth="yes"/>
			<point x="790" y="912.806171826"/>
			<point x="915" y="766.806171826"/>
			<point x="915" y="557.806171826" type="curve" smooth="yes"/>
			<point x="915" y="244.806171826"/>
			<point x="704" y="90.806171826"/>
			<point x="456" y="90.806171826" type="curve" smooth="yes"/>
			<point x="219" y="90.806171826"/>
			<point x="60" y="191.806171826"/>
			<point x="60" y="425.806171826" type="curve" smooth="yes"/>
			<point x="60" y="684.806171826"/>
			<point x="276" y="819.806171826"/>
			<point x="367" y="819.806171826" type="curve" smooth="yes"/>
			<point x="395" y="819.806171826"/>
			<point x="408" y="808.806171826"/>
			<point x="408" y="785.806171826" type="curve" smooth="yes"/>
			<point x="408" y="760.806171826"/>
			<point x="394" y="731.806171826"/>
		</contour>
		<contour>
			<point x="480" y="286.806171826" type="curve" smooth="yes"/>
			<point x="585" y="286.806171826"/>
			<point x="640" y="319.806171826"/>
			<point x="640" y="412.806171826" type="curve" smooth="yes"/>
			<point x="640" y="446.806171826"/>
			<point x="627" y="471.806171826"/>
			<point x="605" y="471.806171826" type="curve" smooth="yes"/>
			<point x="588" y="471.806171826"/>
			<point x="548" y="435.806171826"/>
			<point x="494" y="435.806171826" type="curve" smooth="yes"/>
			<point x="452" y="435.806171826"/>
			<point x="427" y="446.806171826"/>
			<point x="427" y="471.806171826" type="curve" smooth="yes"/>
			<point x="427" y="504.806171826"/>
			<point x="469" y="545.806171826"/>
			<point x="520" y="545.806171826" type="curve" smooth="yes"/>
			<point x="529" y="545.806171826"/>
			<point x="535" y="538.806171826"/>
			<point x="538" y="528.806171826" type="curve" smooth="yes"/>
			<point x="541" y="518.806171826"/>
			<point x="548" y="510.806171826"/>
			<point x="558" y="510.806171826" type="curve" smooth="yes"/>
			<point x="612" y="510.806171826"/>
			<point x="651" y="576.806171826"/>
			<point x="651" y="631.806171826" type="curve" smooth="yes"/>
			<point x="651" y="679.806171826"/>
			<point x="622" y="712.806171826"/>
			<point x="545" y="712.806171826" type="curve" smooth="yes"/>
			<point x="418" y="712.806171826"/>
			<point x="288" y="586.806171826"/>
			<point x="288" y="453.806171826" type="curve" smooth="yes"/>
			<point x="288" y="354.806171826"/>
			<point x="368" y="286.806171826"/>
		</contour>
	</outline>
</glyph>
<glyph name="endash" format="2">
	<unicode hex="2013"/>
	<advance width="700"/>
	<outline>
		<contour>
			<point x="206" y="40.4147079071" type="curve" smooth="yes"/>
			<point x="262.7638888889" y="40.4147079071"/>
			<point x="355.0172413793" y="50.4147079071"/>
			<point x="608" y="50.4147079071" type="curve" smooth="yes"/>
			<point x="639" y="50.4147079071"/>
			<point x="657" y="71.4147079071"/>
			<point x="657" y="104.4147079071" type="curve" smooth="yes"/>
			<point x="657" y="144.6624143291"/>
			<point x="614" y="211.4147079071"/>
			<point x="495" y="211.4147079071" type="curve" smooth="yes"/>
			<point x="355" y="211.4147079071"/>
			<point x="220.8176325226" y="206.3906455316"/>
			<point x="77" y="187.4147079071" type="curve" smooth="yes"/>
			<point x="46.2890288795" y="183.1787118905"/>
			<point x="41" y="163.9147079071"/>
			<point x="41" y="140.4147079071" type="curve" smooth="yes"/>
			<point x="41" y="91.8710185867"/>
			<point x="99.7116564417" y="40.4147079071"/>
		</contour>
	</outline>
</glyph>
<glyph name="emdash" format="2">
	<unicode hex="2014"/>
	<advance width="1000"/>
	<outline>
		<contour>
			<point x="206" y="51.944581911" type="curve" smooth="yes"/>
			<point x="305.8208955224" y="51.944581911"/>
			<point x="466.9353233831" y="61.944581911"/>
			<point x="910" y="61.944581911" type="curve" smooth="yes"/>
			<point x="941" y="61.944581911"/>
			<point x="959" y="82.944581911"/>
			<point x="959" y="115.944581911" type="curve" smooth="yes"/>
			<point x="959" y="155.944581911"/>
			<point x="916" y="222.944581911"/>
			<point x="797" y="222.944581911" type="curve" smooth="yes"/>
			<point x="555.8516746411" y="222.944581911"/>
			<point x="324" y="215.944581911"/>
			<point x="77" y="198.944581911" type="curve" smooth="yes"/>
			<point x="46" y="196.944581911"/>
			<point x="41" y="175.944581911"/>
			<point x="41" y="151.944581911" type="curve" smooth="yes"/>
			<point x="41" y="102.944581911"/>
			<point x="100" y="51.944581911"/>
		</contour>
	</outline>
</glyph>
<glyph name="quoteright" format="2">
	<unicode hex="2019"/>
	<advance width="271"/>
	<image fileName="quoteleft.png" xScale="2.7154088417" yScale="2.7154088417" xOffset="-2596.4273808669" yOffset="-445.4316255776" color="0,0,0,0.31832"/>
	<outline>
		<contour>
			<point x="178" y="997.0693432863" type="curve" smooth="yes"/>
			<point x="144" y="997.0693432863"/>
			<point x="125" y="983.0693432863"/>
			<point x="109" y="947.0693432863" type="curve" smooth="yes"/>
			<point x="77" y="878.0693432863"/>
			<point x="49" y="785.0693432863"/>
			<point x="49" y="717.0693432863" type="curve" smooth="yes"/>
			<point x="49" y="655.0693432863"/>
			<point x="76" y="599.0693432863"/>
			<point x="120" y="599.0693432863" type="curve" smooth="yes"/>
			<point x="159" y="599.0693432863"/>
			<point x="180" y="628.0693432863"/>
			<point x="200" y="669.0693432863" type="curve" smooth="yes"/>
			<point x="221" y="714.0693432863"/>
			<point x="247" y="755.0693432863"/>
			<point x="273" y="827.0693432863" type="curve" smooth="yes"/>
			<point x="284" y="857.0693432863"/>
			<point x="289" y="878.0693432863"/>
			<point x="289" y="901.0693432863" type="curve" smooth="yes"/>
			<point x="289" y="946.0693432863"/>
			<point x="230" y="997.0693432863"/>
		</contour>
	</outline>
</glyph>
<glyph name="dagger" format="2">
	<unicode hex="2020"/>
	<advance width="619"/>
	<outline>
		<contour>
			<point x="402" y="467.0404871269" type="curve" smooth="yes"/>
			<point x="402" y="364.0404871269"/>
			<point x="377" y="246.0404871269"/>
			<point x="377" y="104.0404871269" type="curve" smooth="yes"/>
			<point x="377" y="-132.9595128731"/>
			<point x="403" y="-198.9595128731"/>
			<point x="403" y="-290.9595128731" type="curve" smooth="yes"/>
			<point x="403" y="-348.9595128731"/>
			<point x="374" y="-376.9595128731"/>
			<point x="328" y="-376.9595128731" type="curve" smooth="yes"/>
			<point x="284" y="-376.9595128731"/>
			<point x="254" y="-347.9595128731"/>
			<point x="242" y="-284.9595128731" type="curve" smooth="yes"/>
			<point x="216" y="-148.9595128731"/>
			<point x="210" y="-60.9595128731"/>
			<point x="210" y="81.0404871269" type="curve" smooth="yes"/>
			<point x="210" y="271.0404871269"/>
			<point x="240" y="372.0404871269"/>
			<point x="235" y="530.0404871269" type="curve" smooth="yes"/>
			<point x="233" y="575.0404871269"/>
			<point x="248" y="605.0404871269"/>
			<point x="297" y="605.0404871269" type="curve" smooth="yes"/>
			<point x="362" y="605.0404871269"/>
			<point x="402" y="565.0404871269"/>
		</contour>
		<contour>
			<point x="240" y="261.0404871269"/>
			<point x="166" y="203.0404871269"/>
			<point x="92" y="203.0404871269" type="curve" smooth="yes"/>
			<point x="42" y="203.0404871269"/>
			<point x="15" y="241.5869987548"/>
			<point x="15" y="288.0404871269" type="curve" smooth="yes"/>
			<point x="15" y="328.5002572418"/>
			<point x="27.9598329386" y="360.0313060843"/>
			<point x="98" y="376.0404871269" type="curve" smooth="yes"/>
			<point x="218" y="403.0404871269"/>
			<point x="361" y="412.0404871269"/>
			<point x="479" y="412.0404871269" type="curve" smooth="yes"/>
			<point x="558" y="412.0404871269"/>
			<point x="604" y="376.0404871269"/>
			<point x="604" y="319.0404871269" type="curve" smooth="yes"/>
			<point x="604" y="285.0404871269"/>
			<point x="589" y="261.0404871269"/>
			<point x="535" y="261.0404871269" type="curve" smooth="yes"/>
		</contour>
	</outline>
</glyph>
<glyph name="minute" format="2">
	<unicode hex="2032"/>
	<advance width="281"/>
	<outline>
		<contour>
			<point x="97" y="545.9465514475" type="curve" smooth="yes"/>
			<point x="137" y="545.9465514475"/>
			<point x="165" y="566.9465514475"/>
			<point x="187" y="601.9465514475" type="curve" smooth="yes"/>
			<point x="226" y="664.9465514475"/>
			<point x="256" y="747.9465514475"/>
			<point x="256" y="809.9465514475" type="curve" smooth="yes"/>
			<point x="256" y="874.9465514475"/>
			<point x="211" y="911.9465514475"/>
			<point x="143" y="911.9465514475" type="curve" smooth="yes"/>
			<point x="86" y="911.9465514475"/>
			<point x="61" y="872.9465514475"/>
			<point x="61" y="808.9465514475" type="curve" smooth="yes"/>
			<point x="61" y="680.9465514475"/>
			<point x="36" y="650.9465514475"/>
			<point x="36" y="605.9465514475" type="curve" smooth="yes"/>
			<point x="36" y="570.9465514475"/>
			<point x="53" y="545.9465514475"/>
		</contour>
	</outline>
</glyph>
